Coordinates
version=1
nRows=13
nColumns=34
inDegrees=yes

Units are S.I. units (second, meters, Newtons, ...)
Angles are in degrees.

endheader
time	pelvis_tilt	pelvis_list	pelvis_rotation	pelvis_tx	pelvis_ty	pelvis_tz	hip_flexion_r	hip_adduction_r	hip_rotation_r	knee_angle_r	ankle_angle_r	subtalar_angle_r	mtp_angle_r	hip_flexion_l	hip_adduction_l	hip_rotation_l	knee_angle_l	socket_flexion	socket_adduction	socket_rotation	socket_tx	socket_ty	socket_tz	pros_ankle_rx	pros_ankle_ry	pros_ankle_rz	pros_ankle_tx	pros_ankle_ty	pros_ankle_tz	foot_flex	lumbar_extension	lumbar_bending	lumbar_rotation
      0.60416667	     -3.78385714	     -4.34595648	     12.23126321	      0.03743615	      1.01871070	      0.31909259	     25.05623459	      1.42437768	    -14.68598671	      1.59959293	     12.29381680	      8.18546842	      9.54187988	     -8.13043463	     -5.92269060	      6.08639208	    -17.42975632	      0.82543836	      2.08100341	      9.18809145	      0.00000000	     -0.01229845	      0.00000000	      0.00000000	      0.00000000	      0.00000000	      0.00000000	      0.00000000	      0.00000000	     13.97388066	     -8.92531979	     -0.06555747	    -39.27442072
      0.60833333	     -3.73873713	     -4.40152842	     12.43194428	      0.04382270	      1.01784972	      0.31911681	     25.01397482	      1.46240728	    -14.44314854	      1.35952831	     12.11811448	      8.26828233	      9.57298982	     -8.29240587	     -6.09128405	      6.19277276	    -17.72201147	      0.99006329	      2.04990703	      9.23764927	      0.00000000	     -0.01228088	      0.00000000	      0.00000000	      0.00000000	      0.00000000	      0.00000000	      0.00000000	      0.00000000	     13.99912330	     -8.81969116	     -0.01404245	    -39.29510165
      0.61250000	     -3.80686717	     -4.50823354	     12.64322654	      0.04987543	      1.01669880	      0.31917409	     25.27880503	      1.47355556	    -14.36055086	      0.89848904	     11.04619811	      8.15707077	     12.96281709	     -8.17307175	     -6.32290330	      6.42092420	    -18.32671608	      0.99808574	      2.20493580	      9.26084516	      0.00000000	     -0.01222463	      0.00000000	      0.00000000	      0.00000000	      0.00000000	      0.00000000	      0.00000000	      0.00000000	     14.17269094	     -8.74484244	      0.31062570	    -39.54828796
      0.61666667	     -3.71993468	     -4.57598612	     12.81653753	      0.05627858	      1.01594566	      0.31929288	     25.20543458	      1.55729567	    -14.10914456	      0.56320731	     10.79275950	      8.24498077	     12.95971068	     -8.32607657	     -6.50570300	      6.51875113	    -18.68829526	      1.20777672	      2.17428726	      9.30616578	      0.00000000	     -0.01221073	      0.00000000	      0.00000000	      0.00000000	      0.00000000	      0.00000000	      0.00000000	      0.00000000	     14.18748884	     -8.64005961	      0.39146923	    -39.55756823
      0.62083333	     -3.62338522	     -4.72740553	     12.92610676	      0.06236952	      1.01515141	      0.31945252	     25.34211565	      1.68915672	    -13.95536661	     -0.09880601	      9.96721551	      8.25959852	     12.99187397	     -8.37573085	     -6.78946320	      6.50803535	    -19.21405584	      1.39981562	      2.26734270	      9.37504458	      0.00000000	     -0.01205134	      0.00000000	      0.00000000	      0.00000000	      0.00000000	      0.00000000	      0.00000000	      0.00000000	     14.40526576	     -8.82977783	      0.80887243	    -39.57873798
      0.62500000	     -3.50709423	     -4.84694858	     13.05334320	      0.06867149	      1.01449571	      0.31958886	     25.35724278	      1.81584750	    -13.76039287	     -0.67057539	      9.39560889	      8.26121910	     13.04283654	     -8.46572811	     -7.02908682	      6.55559495	    -19.71121391	      1.62467016	      2.30179371	      9.42155656	      0.00000000	     -0.01186485	      0.00000000	      0.00000000	      0.00000000	      0.00000000	      0.00000000	      0.00000000	      0.00000000	     14.53718652	     -8.82298183	      1.09353454	    -39.58035944
      0.62916667	     -3.39311677	     -5.01041846	     13.16098401	      0.07490482	      1.01383253	      0.31973967	     25.42552527	      1.98364245	    -13.61072802	     -1.32568636	      8.72684095	      8.20401304	     13.11223286	     -8.50974835	     -7.30326159	      6.57786341	    -20.25190076	      1.88666099	      2.33537898	      9.45842988	      0.00000000	     -0.01177562	      0.00000000	      0.00000000	      0.00000000	      0.00000000	      0.00000000	      0.00000000	      0.00000000	     14.64166651	     -8.88382419	      1.42046613	    -39.56074620
      0.63333333	     -3.57077799	     -5.19543475	     13.19723351	      0.08103650	      1.01268091	      0.32007790	     25.91180388	      2.11625577	    -13.28136794	     -2.13692659	      7.73040225	      7.48351703	     15.06997631	     -8.16490560	     -7.53541659	      6.63222783	    -20.94294021	      2.11252683	      2.45502100	      9.47728095	      0.00000000	     -0.01180429	      0.00000000	      0.00000000	      0.00000000	      0.00000000	      0.00000000	      0.00000000	      0.00000000	     14.67010527	     -8.60721191	      1.66726000	    -39.36944631
      0.63750000	     -3.39006164	     -5.36259424	     13.26873186	      0.08730304	      1.01224658	      0.32026610	     25.90453172	      2.32138414	    -13.15468777	     -2.82823969	      7.09395292	      7.47168717	     15.07739305	     -8.22857228	     -7.79593866	      6.62709889	    -21.55569605	      2.42325250	      2.44539015	      9.46221887	      0.00000000	     -0.01156167	      0.00000000	      0.00000000	      0.00000000	      0.00000000	      0.00000000	      0.00000000	      0.00000000	     14.77593953	     -8.71569000	      2.02487467	    -39.36233201
      0.64166667	     -3.21407518	     -5.56938638	     13.33328872	      0.09350943	      1.01184023	      0.32047626	     25.96749244	      2.54965316	    -13.12682262	     -3.63267951	      6.39702341	      7.34707739	     15.10510585	     -8.23386055	     -8.10165071	      6.58103401	    -22.20829087	      2.77961940	      2.45811730	      9.48275111	      0.00000000	     -0.01140901	      0.00000000	      0.00000000	      0.00000000	      0.00000000	      0.00000000	      0.00000000	      0.00000000	     14.81880650	     -8.87359279	      2.42331771	    -39.28074280
      0.64583333	     -3.04574086	     -5.79633386	     13.36312813	      0.09971603	      1.01147526	      0.32074992	     26.06275845	      2.80652317	    -13.12138729	     -4.48659864	      5.73392137	      7.16524388	     15.16471111	     -8.19848573	     -8.41789125	      6.52655984	    -22.90088659	      3.16390475	      2.48127105	      9.50928435	      0.00000000	     -0.01121121	      0.00000000	      0.00000000	      0.00000000	      0.00000000	      0.00000000	      0.00000000	      0.00000000	     14.84501460	     -9.00957025	      2.84055992	    -39.14179478
      0.65000000	     -3.05876823	     -6.05065493	     13.30031781	      0.10587581	      1.01080429	      0.32121251	     26.47121757	      3.06162321	    -12.99989778	     -5.56391441	      5.19611563	      6.75054086	     15.67606741	     -7.93402364	     -8.72362517	      6.43290728	    -23.66764180	      3.54747784	      2.57746199	      9.54466410	      0.00000000	     -0.01109950	      0.00000000	      0.00000000	      0.00000000	      0.00000000	      0.00000000	      0.00000000	      0.00000000	     14.83973840	     -8.90403708	      3.21517563	    -38.72331424
      0.65416667	     -2.89326225	     -6.26989675	     13.30098145	      0.11201379	      1.01055380	      0.32151256	     26.58702137	      3.30678913	    -13.03557830	     -6.47321119	      4.55357452	      6.54799952	     15.77415795	     -7.82416468	     -8.99765809	      6.37267682	    -24.44948178	      3.99337250	      2.56581144	      9.52573882	      0.00000000	     -0.01078492	      0.00000000	      0.00000000	      0.00000000	      0.00000000	      0.00000000	      0.00000000	      0.00000000	     14.83376905	     -9.03047245	      3.62189528	    -38.60588282
